<svg width="98" height="54" viewBox="0 0 84 47" fill="none" xmlns="http://www.w3.org/2000/svg">
<path d="M83.349 12.1178C83.349 19.1468 78.6587 24.1918 71.7743 24.1918C65.2052 24.1918 60.4229 19.5541 60.4229 12.1178C60.4229 4.11665 66.1643 0.00439453 71.9845 0.00439453C77.5814 0.00439453 83.349 3.94586 83.349 12.1178ZM77.7127 12.1178C77.7127 8.75444 76.0836 4.86553 71.8662 4.86553C68.043 4.86553 66.0329 8.15009 66.0329 12.1178C66.0329 16.5717 68.516 19.3701 71.8662 19.3701C76.0836 19.3701 77.7127 15.5075 77.7127 12.1178Z" fill="#BF1528"/>
<path d="M58.3075 21.9977C55.8228 23.4755 52.9733 24.2266 50.083 24.1655C42.3051 24.1655 38.4688 18.8051 38.4688 12.2491C38.3878 10.6382 38.6422 9.02807 39.2157 7.52054C39.7893 6.01301 40.6695 4.64095 41.8007 3.49121C42.9319 2.34146 44.2895 1.43906 45.7875 0.841115C47.2856 0.243172 48.8914 -0.0372933 50.5034 0.0174732C53.0733 -0.103112 55.6341 0.401834 57.9659 1.48895L55.9952 6.03477C54.3586 5.35976 52.602 5.02451 50.8318 5.04941C45.905 5.04941 44.2627 8.00551 44.2627 12.0784C44.2627 16.4665 46.5094 19.3175 50.4246 19.3175C51.3883 19.3591 52.349 19.184 53.2361 18.8051V14.7454H49.2947V10.1208H58.3732L58.3075 21.9977Z" fill="#BF1528"/>
<path d="M31.7684 23.824C31.1416 21.5337 30.0751 19.3874 28.6284 17.5045C28.2292 16.9061 27.6814 16.4217 27.0387 16.0987C26.3161 16.0987 25.8037 16.0987 25.1468 16.0987V23.824H19.7207V0.621905C20.8637 0.451108 21.6783 0.346004 22.8739 0.22776C24.0694 0.109516 25.2256 0.0701001 26.6183 0.0701001C28.1893 0.0362281 29.7566 0.235466 31.2692 0.661318C32.417 0.991985 33.4824 1.56049 34.3961 2.32987C35.2054 3.0023 35.8219 3.87724 36.1829 4.86555C36.5688 5.81688 36.7652 6.83444 36.7609 7.86106C36.7861 9.25266 36.4073 10.6217 35.6705 11.8025C34.9005 12.9372 33.9027 13.8992 32.7407 14.6272V14.7192C35.3683 15.9016 36.7872 19.6986 38.193 23.7977L31.7684 23.824ZM31.3217 8.05813C31.342 7.61761 31.2559 7.17867 31.0707 6.77847C30.8854 6.37826 30.6065 6.02856 30.2575 5.75895C29.4288 5.17624 28.4321 4.88091 27.4197 4.9181H26.4869C26.1847 4.9181 25.3964 4.99693 25.1731 5.04948V11.7237C25.5278 11.7237 26.2898 11.7237 26.8942 11.7237C28.0573 11.763 29.2029 11.4317 30.1656 10.7777C30.5636 10.4328 30.8772 10.0012 31.0822 9.51603C31.2872 9.03087 31.3781 8.50513 31.348 7.9793" fill="#BF1528"/>
<path d="M0.656738 18.2404V0.398682H16.5934V5.43062H6.08283V9.37208H15.0299V14.1018H6.13537V16.5981C6.09502 16.8924 6.12128 17.192 6.21219 17.4748C6.30311 17.7576 6.45638 18.0163 6.66067 18.232C6.86496 18.4476 7.11505 18.6146 7.39252 18.7207C7.66998 18.8267 7.96774 18.8691 8.26377 18.8447H17.0664V23.8241H6.20107C2.12822 23.8241 0.696151 21.9454 0.696151 18.2798" fill="#BF1528"/>
<path d="M82.0348 27.1351C82.0348 27.1585 82.0279 27.1813 82.0149 27.2008C82.0019 27.2202 81.9834 27.2354 81.9618 27.2443C81.9402 27.2533 81.9165 27.2556 81.8935 27.2511C81.8706 27.2465 81.8495 27.2352 81.833 27.2187C81.8164 27.2022 81.8052 27.1811 81.8006 27.1582C81.7961 27.1352 81.7984 27.1114 81.8073 27.0898C81.8163 27.0682 81.8314 27.0498 81.8509 27.0368C81.8703 27.0238 81.8932 27.0168 81.9166 27.0168C81.9479 27.0168 81.978 27.0293 82.0002 27.0515C82.0224 27.0737 82.0348 27.1037 82.0348 27.1351Z" fill="#575756"/>
<path d="M83.073 30.091C82.9204 30.246 82.7383 30.3688 82.5375 30.4523C82.3366 30.5358 82.1211 30.5782 81.9037 30.5771C81.6868 30.5822 81.4712 30.5429 81.2701 30.4615C81.069 30.3802 80.8867 30.2586 80.7344 30.1041C80.4408 29.7862 80.2767 29.3701 80.2743 28.9374C80.2719 28.5047 80.4313 28.0867 80.7212 27.7655C80.8729 27.6093 81.0548 27.4857 81.2558 27.4021C81.4569 27.3185 81.6728 27.2768 81.8905 27.2794C82.108 27.2783 82.3235 27.3207 82.5243 27.4042C82.7252 27.4877 82.9072 27.6106 83.0598 27.7655C83.3604 28.0853 83.5253 28.5092 83.5197 28.948C83.5253 29.1657 83.4875 29.3824 83.4085 29.5854C83.3296 29.7884 83.2111 29.9737 83.0598 30.1304L83.073 30.091ZM83.2175 30.2881C83.397 30.1198 83.5399 29.9162 83.6371 29.6901C83.7343 29.4641 83.7838 29.2203 83.7824 28.9742C83.7815 28.7285 83.731 28.4855 83.6339 28.2597C83.5368 28.034 83.3952 27.8301 83.2175 27.6604C83.0485 27.4826 82.8446 27.3418 82.6184 27.2468C82.3923 27.1518 82.1489 27.1048 81.9037 27.1086C81.6589 27.1078 81.4164 27.1563 81.1907 27.2511C80.965 27.3459 80.7607 27.4851 80.5898 27.6604C80.2357 28.0068 80.0327 28.479 80.0249 28.9742C80.0317 29.4774 80.2346 29.958 80.5904 30.3138C80.9462 30.6696 81.4268 30.8725 81.9299 30.8793C82.176 30.8807 82.4197 30.8312 82.6458 30.734C82.8719 30.6368 83.0755 30.4939 83.2438 30.3143L83.2175 30.2881ZM81.9299 29.1056L82.5606 30.1041H82.8759L82.2059 29.1056C82.2847 29.1023 82.3621 29.0832 82.4334 29.0495C82.5048 29.0158 82.5686 28.9682 82.6213 28.9094C82.6739 28.8507 82.7143 28.7819 82.74 28.7073C82.7656 28.6327 82.7761 28.5537 82.7708 28.475C82.7708 28.0546 82.5343 27.8575 82.0482 27.8575H81.1679V30.1041H81.4307V29.0794L81.9299 29.1056ZM81.4307 28.094H82.035C82.3898 28.094 82.5737 28.2122 82.5737 28.4619C82.5837 28.5377 82.5668 28.6147 82.526 28.6795C82.4852 28.7442 82.4231 28.7927 82.3504 28.8166C82.1984 28.8454 82.0425 28.8454 81.8905 28.8166H81.4832L81.4307 28.094Z" fill="#575756"/>
<path d="M5.11076 36.4499H13.7163C13.8083 36.4499 13.8477 36.4499 13.8477 36.2922V35.8193C13.8477 33.1916 13.8477 31.5756 13.8477 31.0764C13.8741 30.7784 13.7914 30.4809 13.615 30.2393C13.4386 29.9976 13.1805 29.8282 12.8886 29.7626C12.5957 29.7367 12.3012 29.7367 12.0083 29.7626C11.7587 29.7626 11.6273 29.7626 11.6273 29.5655C11.6273 29.3684 11.785 29.3684 12.1003 29.3684C12.4156 29.3684 13.1645 29.3684 13.9396 29.3684H15.3192H16.633C17.3424 29.3684 17.8548 29.3684 18.1702 29.3684C18.4855 29.3684 18.63 29.3684 18.63 29.5655C18.63 29.7626 18.5117 29.7626 18.2358 29.7626C18.0216 29.7464 17.8064 29.7464 17.5921 29.7626C17.0797 29.8545 16.8038 30.2749 16.7512 31.0764C16.7512 31.5756 16.7512 33.1522 16.7512 35.8193V39.7607C16.7512 42.2964 16.7512 43.8861 16.8695 44.543C16.9877 45.1999 17.2505 45.6729 17.7366 45.7518C18.1148 45.8109 18.4968 45.8417 18.8796 45.8437C19.1292 45.8437 19.2475 45.8437 19.2475 46.0145C19.2475 46.1853 19.0898 46.2379 18.7876 46.2379C18.2358 46.2379 17.5526 46.2379 16.7249 46.2379H15.2929H13.9791C13.2827 46.2379 12.7572 46.2379 12.4288 46.2379C12.1003 46.2379 11.9689 46.2379 11.9689 46.0145C11.9689 45.7912 12.1397 45.8437 12.455 45.8174H13.1251C13.4667 45.7386 13.69 45.3313 13.782 44.5825C13.874 43.8336 13.8871 42.4147 13.8871 39.8264V37.8557C13.8871 37.7637 13.8871 37.7243 13.7557 37.7243H5.20274C5.18498 37.7222 5.16696 37.7241 5.15006 37.73C5.13315 37.7359 5.1178 37.7455 5.10515 37.7581C5.0925 37.7708 5.0829 37.7861 5.07704 37.803C5.07119 37.8199 5.06924 37.8379 5.07135 37.8557V39.8264C5.07135 42.3621 5.07135 43.9518 5.17646 44.6087C5.28156 45.2656 5.5706 45.7386 6.05672 45.8174C6.43489 45.8766 6.81696 45.9074 7.19974 45.9094C7.43622 45.9094 7.55447 45.9094 7.55447 46.0802C7.55447 46.251 7.40996 46.3036 7.10778 46.3036C6.55597 46.3036 5.87278 46.3036 5.04507 46.3036H3.61301H2.29919C1.58972 46.3036 1.07734 46.3036 0.748888 46.3036C0.420432 46.3036 0.302173 46.3036 0.302173 46.0802C0.302173 45.8569 0.459845 45.9094 0.788301 45.8831H1.45834C1.79994 45.8043 2.02329 45.397 2.10212 44.6613C2.18095 43.9255 2.22036 42.4803 2.22036 39.8921V35.9507C2.22036 33.323 2.22036 31.707 2.22036 31.2078C2.23126 30.9129 2.14257 30.6229 1.96859 30.3846C1.7946 30.1462 1.54546 29.9734 1.26128 29.8939C0.968427 29.8681 0.67387 29.8681 0.381019 29.8939C0.131393 29.8939 0 29.8939 0 29.6969C0 29.4998 0.157659 29.4998 0.472976 29.4998C0.788294 29.4998 1.53717 29.4998 2.29919 29.4998H3.69183H5.00566C5.71512 29.4998 6.22751 29.4998 6.54282 29.4998C6.85814 29.4998 7.0158 29.4998 7.0158 29.6969C7.0158 29.8939 6.87128 29.8939 6.60852 29.8939C6.39423 29.8777 6.17905 29.8777 5.96476 29.8939C5.45237 29.9859 5.17646 30.4063 5.13705 31.2078C5.13705 31.707 5.13705 33.2836 5.13705 35.9507V36.4236C5.13705 36.5287 5.13705 36.5813 5.26844 36.5813" fill="#575756"/>
<path d="M22.046 39.5898V35.6484C22.046 33.0207 22.046 31.4047 22.046 30.9055C22.0753 30.6069 21.9938 30.308 21.8169 30.0658C21.64 29.8235 21.3802 29.6547 21.087 29.5916C20.8005 29.5438 20.5103 29.5218 20.2198 29.5259C19.9571 29.5259 19.8257 29.4603 19.8257 29.3289C19.8257 29.1975 19.9965 29.1187 20.3249 29.1187H22.1512H23.5438C27.078 29.1187 28.9436 29.1187 29.1407 29.1187C29.4643 29.1109 29.786 29.0668 30.0998 28.9873L30.4676 28.9084C30.5465 28.9084 30.599 28.9741 30.599 29.1055C30.599 29.2369 30.599 29.2632 30.5333 29.5128C30.48 29.8611 30.4449 30.2119 30.4282 30.5639C30.4282 30.958 30.3625 31.4573 30.31 32.0353C30.31 32.2061 30.2049 32.2718 30.0866 32.2718C29.9684 32.2718 29.9158 32.2061 29.8896 32.0353C29.8633 31.8645 29.8896 31.7069 29.8896 31.5624C29.8744 31.4278 29.8435 31.2956 29.7976 31.1682C29.6137 30.7347 29.1144 30.4588 28.2998 30.3537C27.7875 30.3537 26.7364 30.2617 25.1204 30.2617C25.0153 30.2617 24.9627 30.3405 24.9627 30.485V36.1476C24.9627 36.3184 24.9627 36.3972 25.1204 36.3972C27.1699 36.3972 28.3524 36.3972 28.694 36.3972C28.8927 36.3855 29.0903 36.3591 29.2852 36.3184C29.4706 36.2835 29.6406 36.1917 29.7713 36.0556C29.9553 35.8586 30.0735 35.7666 30.1392 35.7666C30.2049 35.7666 30.2968 35.8323 30.2968 35.9374C30.2968 36.0425 30.2968 36.1082 30.218 36.3972C30.1392 36.6863 30.1392 37.133 30.1129 37.5797C30.0472 38.4337 30.0209 38.8935 30.0209 39.0774C30.0209 39.2614 29.9552 39.4978 29.8239 39.4978C29.7945 39.5001 29.7651 39.4957 29.7377 39.4851C29.7102 39.4745 29.6855 39.4578 29.6654 39.4364C29.6452 39.415 29.6301 39.3893 29.6212 39.3613C29.6122 39.3333 29.6097 39.3036 29.6137 39.2745C29.6047 39.0146 29.5784 38.7557 29.5348 38.4993C29.4166 37.987 28.9962 37.6979 28.221 37.6191C27.8137 37.6191 26.7495 37.6191 25.0416 37.6191C24.9496 37.6191 24.9102 37.6979 24.9102 37.8424V43.0977C24.8826 43.3766 24.9153 43.6582 25.006 43.9234C25.0966 44.1886 25.2432 44.4312 25.4357 44.6349C26.1137 44.9283 26.8548 45.0458 27.5904 44.9765C28.3067 45.0223 29.025 44.9286 29.7056 44.7006C29.9962 44.529 30.2395 44.2879 30.4138 43.9989C30.5881 43.71 30.6879 43.3822 30.7041 43.0452C30.7041 42.835 30.8355 42.7167 30.9538 42.7167C31.072 42.7167 31.1377 42.8481 31.1377 43.124C31.1474 43.965 31.0503 44.8038 30.8486 45.6203C30.7698 45.883 30.6647 46.0538 30.5333 46.1064C30.2419 46.1819 29.9407 46.213 29.6399 46.1983C28.3261 46.1983 27.0123 46.1983 25.6985 46.1327L23.373 46.0538H22.0592H20.4957C20.2067 46.0538 20.0491 45.975 20.0491 45.8305C20.0491 45.6859 20.2198 45.6597 20.5352 45.6334L21.2184 45.5677C21.5599 45.4889 21.7701 45.0816 21.8621 44.3327C21.9541 43.5838 21.9803 42.1649 21.9803 39.5767" fill="#575756"/>
<path d="M37.0497 46.3299C35.9299 46.364 34.8154 46.1626 33.7783 45.7386C33.6338 45.675 33.5137 45.5665 33.4356 45.4293C33.3575 45.292 33.3257 45.1333 33.3447 44.9766C33.3447 44.1752 33.3447 43.203 33.4498 42.0468C33.4498 41.6658 33.5812 41.4687 33.7257 41.4687C33.8703 41.4687 33.9491 41.6001 33.9491 41.8497C33.9621 42.238 34.0285 42.6226 34.1462 42.9927C34.3247 43.6916 34.7473 44.3035 35.3377 44.718C35.928 45.1324 36.6471 45.322 37.365 45.2525C37.7779 45.2729 38.1907 45.2101 38.5789 45.0679C38.967 44.9257 39.3227 44.707 39.6248 44.4248C39.8593 44.2041 40.0458 43.9373 40.1724 43.6411C40.299 43.3449 40.363 43.0258 40.3605 42.7037C40.2996 41.9778 40.0709 41.276 39.6924 40.6535C39.3139 40.0311 38.796 39.5051 38.1796 39.117L37.1417 38.3155C34.9345 36.5638 33.8308 34.812 33.8308 33.0603C33.816 32.4758 33.9377 31.896 34.1863 31.3668C34.4349 30.8377 34.8035 30.3738 35.2629 30.0122C36.3271 29.1881 37.6496 28.769 38.9942 28.8298C40.0006 28.827 41.0031 28.9551 41.9765 29.2108C42.1867 29.2108 42.2919 29.3553 42.2919 29.4735C42.2919 29.5918 42.2919 29.71 42.2919 30.2618C42.2919 30.8136 42.2919 31.4574 42.2919 32.1537C42.2919 32.6136 42.213 32.8369 42.0554 32.8369C41.8977 32.8369 41.832 32.7055 41.832 32.4296C41.8134 31.885 41.6042 31.3642 41.2408 30.9582C40.9507 30.593 40.5776 30.3023 40.1526 30.1104C39.7276 29.9184 39.2628 29.8307 38.7971 29.8545C38.0917 29.8221 37.3993 30.0514 36.8526 30.4983C36.6099 30.6905 36.4123 30.9337 36.2738 31.2107C36.1353 31.4876 36.0593 31.7916 36.0512 32.1012C36.0493 32.6416 36.2247 33.1677 36.5505 33.5989C37.0911 34.2625 37.7186 34.8502 38.4161 35.3463L39.0467 35.8062C40.1473 36.5732 41.1073 37.5243 41.8846 38.6177C42.4407 39.4786 42.733 40.4833 42.7254 41.5081C42.7601 42.2946 42.5819 43.0759 42.2096 43.7696C41.8373 44.4633 41.2848 45.0437 40.6102 45.4496C39.5418 46.0933 38.3094 46.4128 37.0629 46.3693" fill="#575756"/>
<path d="M49.4786 39.5898V30.3931L46.1415 30.485C44.9591 30.485 44.2365 30.7346 43.9737 31.1419C43.8024 31.3761 43.6735 31.6384 43.5927 31.9171C43.5927 32.101 43.4613 32.193 43.3431 32.193C43.2248 32.193 43.146 32.0747 43.146 31.8251C43.2222 30.9365 43.3806 30.0569 43.619 29.1975C43.6847 28.8953 43.7766 28.7639 43.8818 28.7639C44.0046 28.7878 44.1238 28.8276 44.2365 28.8822C44.4288 28.9626 44.6329 29.0114 44.8408 29.0267C45.6554 29.1055 46.3911 29.1449 47.0743 29.1449H55.9426C56.3129 29.1334 56.6819 29.0938 57.0462 29.0267C57.3932 28.9614 57.7445 28.9219 58.0973 28.9084C58.2155 28.9084 58.2681 29.0661 58.2681 29.3814C58.2681 29.6967 58.2681 29.9464 58.2681 30.6952C58.2681 31.4441 58.2681 31.8383 58.2681 32.0091C58.2681 32.1799 58.1893 32.3507 58.0842 32.3507C57.9791 32.3507 57.8739 32.2061 57.8477 31.8908V31.6543C57.7688 30.866 56.893 30.4281 55.22 30.3405L52.3953 30.2748V39.4716C52.3953 41.9941 52.3953 43.597 52.5004 44.2539C52.6055 44.9108 52.8814 45.3838 53.3807 45.4626C53.7596 45.5152 54.1412 45.5459 54.5237 45.5546C54.7602 45.5546 54.8784 45.5546 54.8784 45.7253C54.8784 45.8961 54.7339 45.9487 54.458 45.9487H52.369H50.937H49.6231H48.0597C47.7707 45.9487 47.6261 45.8699 47.6261 45.7253C47.6261 45.5808 47.7838 45.5546 48.1122 45.5283L48.7823 45.4626C49.1239 45.3838 49.3472 44.9765 49.4261 44.2276C49.5049 43.4787 49.5443 41.981 49.5443 39.4716" fill="#575756"/>
<path d="M83.7166 45.7125C83.3988 45.7184 83.0814 45.6875 82.7707 45.6205C82.0875 45.4629 81.4569 44.6615 80.8131 43.1768C78.4745 37.4573 76.622 32.8721 75.2556 29.4211C75.0454 28.9482 74.8615 28.7117 74.6907 28.7117C74.5199 28.7117 74.3097 29.0007 74.0732 29.6051L68.45 43.6498C68.2761 44.1484 68.0281 44.6178 67.7143 45.0425C67.4233 45.3922 67.0098 45.6178 66.5581 45.6731C65.8011 45.7168 65.0422 45.7168 64.2852 45.6731C64.0264 45.6372 63.7906 45.5049 63.625 45.3028C63.4594 45.1007 63.3761 44.8435 63.3918 44.5826C63.3918 43.9783 63.2999 42.3491 63.2999 39.6821V35.6486C63.2999 33.021 63.2999 31.405 63.2999 30.9189C63.2999 30.1569 63.6283 29.7233 64.1275 29.6051C64.3576 29.5655 64.5904 29.5435 64.8239 29.5394C65.0472 29.5394 65.1523 29.5394 65.1523 29.316C65.1523 29.0927 64.9947 29.1452 64.6794 29.1452C64.364 29.1452 63.8779 29.1452 63.2079 29.1452H61.8941H60.5802C59.8576 29.1452 59.3452 29.1452 59.0431 29.1452C58.7409 29.1452 58.5044 29.1452 58.5044 29.316C58.5044 29.4868 58.6358 29.5394 58.8985 29.5394C59.1604 29.5411 59.4209 29.5764 59.6737 29.6445C60.1335 29.7496 60.3963 30.17 60.4357 30.9583C60.4357 31.44 60.4357 33.0166 60.4357 35.6881V39.6295C60.4357 42.2572 60.4357 43.8469 60.3306 44.5169C60.2255 45.187 60.0416 45.5417 59.6737 45.6205H59.0037C58.6752 45.6205 58.5175 45.7257 58.5175 45.8176C58.5175 45.9096 58.6621 46.041 58.9642 46.041C59.2664 46.041 59.8051 46.041 60.5145 46.041H61.8284H63.2473C64.075 46.041 64.7582 46.041 65.3231 46.041H65.9669C66.4399 46.041 67.2807 46.041 68.5946 46.041H69.7639C70.3157 46.041 70.7098 46.041 70.9594 46.041C71.2091 46.041 71.3404 46.041 71.3404 45.8308C71.3404 45.6205 71.2353 45.66 71.012 45.66H70.6704C70.0792 45.66 69.777 45.4235 69.777 44.9505C69.8152 44.4978 69.9261 44.0541 70.1054 43.6367L71.3142 40.431C71.3142 40.3127 71.4324 40.2602 71.5244 40.2602H76.5037C76.5512 40.2591 76.5978 40.2723 76.6377 40.298C76.6775 40.3238 76.7087 40.361 76.7271 40.4047L78.527 45.1476C78.6321 45.4103 78.527 45.5943 78.33 45.66C78.1329 45.7257 78.0015 45.7388 78.0015 45.857C78.0015 45.9753 78.2249 46.0278 78.6847 46.041C79.6569 46.041 81.0627 46.041 82.9152 46.041C83.182 46.0608 83.4499 46.0608 83.7166 46.041C83.8611 46.041 83.94 45.949 83.94 45.857C83.94 45.7651 83.848 45.6862 83.6509 45.6862L83.7166 45.7125ZM76.0833 39.1171H71.9711C71.8791 39.1171 71.8397 39.1171 71.8791 38.9595L73.9418 33.4546C73.9418 33.3232 74.0075 33.2575 74.0732 33.2575C74.1389 33.2575 74.152 33.2575 74.1914 33.4546L76.2016 38.9858C76.2016 39.0777 76.2016 39.1171 76.0833 39.1171Z" fill="#575756"/>
</svg>
