<svg xmlns="http://www.w3.org/2000/svg" viewBox="0 0 89 73"><g fill="#C5281C"><path d="M16.9 64.4v-6.1c3.8 0 5.2-.2 5.9 4.5h.4v-5.2H12.7v.7h1.8v13.5h-2v.7h10.8V67h-.5c-.5 4.2-1.6 4.8-4.6 4.8h-1.4v-6.5h.8c1.3 0 2.1.8 2.4 3.1h.5v-6.8H20s-.1 2.9-2.4 2.9h-.7z"/><path d="M12.6 64.6H6.7v.7h2v4.8c-.3 1.2-2.2 1.7-2.7 1.7-3.8 0-3.5-5.5-3.5-7 0-1.3-.1-7 3.5-7 2.6 0 3.9 2.5 4.4 4.8h.4v-5.4S9 58.5 9 58.4c0 0-.8-1.2-3.1-1.2-4.4 0-6.1 4.4-6.1 7.5 0 2.8 1.3 7.7 6.1 7.7 1.5 0 2.5-.8 3.1-1.6l1.9 1.5v-7.1h1.6v-.6z"/><path d="M81.5 66.9c-.5 4.2-1.6 4.8-4.6 4.8h-.2V58.3h1.9v-.7h-6.2v.7h1.9v13.5h-1.5l-5.5-14.6h-.8s-4.6 13.2-4.6 13.3c0 0-.3 1.1-1.1 1.3-.7 0-.6-.3-.6-.5v-2.6c0-.7-.1-2.2-.7-2.9-.8-.8-2.1-.8-2.1-.9 0 0 3.4-.7 3.4-3.9 0-2.3-1.6-3.4-4.2-3.5h-7.4v.7h1.9v13.5h-1.9v.7h6.1v-.7h-1.9v-6.5h2.5c4.4.4-.8 7.2 5 7.2h3.6v-.7c-.2 0-1.5 0-1.6-.9-.1-.7.9-3.1.9-3.1h5s1.5 4 1.6 4h-1.7v.7h13.5v-5.5h-.7zm-25.7-2.4h-2.4v-6.2h3.1c1.8.3 1.9 2.4 1.9 3 0 1.6-.7 3.2-2.6 3.2m8.4 2.6l2.2-6.4 2.3 6.4h-4.5z"/><path d="M41.8 58.2c3.8 0 5.3-.2 5.9 4.5h.4v-5.2H32.9v.7h.4c.5 0 1.8 0 1.9 1.2V68l-7.1-10.5h-3.9v.7h.6c.8 0 1.8 0 1.9 1.2v11c0 1.1-1.6 1.5-2.3 1.5v.5h5.3v-.5c-.7 0-2.3-.4-2.3-1.5v-9.7c2.8 4 8.1 11.7 8.2 11.7h.3v-13c.1-1.1 1.3-1.2 1.9-1.2h1.7v13.5h-2v.7h10.8v-5.5h-.5c-.5 4.2-1.6 4.8-4.6 4.8h-1.4v-6.5h.8c1.3 0 2.1.8 2.4 3.1h.5v-6.8H45s-.1 2.9-2.4 2.9h-.7v-6.2z"/><path d="M88.9 58.3v-.8h-6.1v.8h1.9v13.4h-1.9v.7h6.1v-.7h-2V58.3z"/><path d="M72.8 48.3l1.9-.7c2.7-1.1 3.1-1.8 2.9-3.6v-7.2c2 5.2 4 8.8 7.9 8.8.5 0 1.1-.1 1.7-.2l1.5-.3-1.1-1.2c-.7-.7-1-1.3-1.4-2-.2-.3-.3-.6-.5-.9-.9-1.5-3.1-2-4.9-1.2-.8-1.6-1.6-3.7-2.6-6.3L78 33c-.2-.4-.3-.8-.5-1.2v-.1c-.6-1.4-1.3-2.7-2-4-.7-1.2-1.4-2.2-2.2-3.1-2.1-2.4-4.8-3.9-8.1-4.5-2.3-.4-3.9-.5-6-.6-.4 0-.9 0-1.3-.1-.9-.1-2.8-.2-4.7-.4-1.3-.1-2.5-.2-3.5-.3.1-.3.1-.6.1-.9 0-.4 0-.8-.1-1.1h13.2c3.4 0 5.9-1.5 7.3-4.5 3.4 0 5.8-1.6 7.3-4.5h.5c3.5 0 6-1.6 7.5-4.8L86 2H41.4C38.5 2 36 3.9 35 6.9V7a9.8 9.8 0 00-3.9-5C28.6.5 25.8 0 23.6.7c-.7.2-1.5.5-2.1.9-.5.4-1.3.9-1.8 1.6-.6.7-1.1 1.6-1.5 2.4-.3.2-.5.4-.6.6l-.5 1v.1c-.6 1.4-1.4 2.4-2 3.2-.6.7-.6 1.4-.6 1.8.1.5.3.9.6 1.2-.2.3-.3.7-.3 1 0 1.2 1 2.1 2.3 2.1.9 0 1.7-.4 2.5-1 .3-.2 1.2-.8 1.5-.8.4 0 .7.3.7.7 0 1-1.2 1.5-2.1 1.5l-1.8.2c-1.3.1-1.9.8-1.9 1.4 0 .6.3 1 .5 1.2l.1.1.5.4-2.1 3.2c-1.4-1.3-3-2-4.4-2.1-.9 0-1.7.2-2.3.8-.2.2-.3.3-.4.5a4 4 0 00-3.3 1.7c-.7 1-.4 2.7.4 4l-5 1.4V53h89v-4.6H72.8zM84.3 42c.2.3.3.6.5.8.2.3.4.6.6 1-1.4-.1-2.5-.9-3.4-2.3.8-.4 1.9-.1 2.3.5M65 22.2c2.9.5 5.2 1.8 7 3.8.4.4.7.9 1.1 1.4-4.8-.6-6.5-1.3-9.2-5.4.4 0 .7.1 1.1.2m-2.1-7h-9.1c.8-.7 1.4-1.6 1.9-2.6H68c-1 1.8-2.7 2.6-5.1 2.6m7.2-4.4H61c.8-.7 1.5-1.6 2-2.7h12.3c-1 1.8-2.7 2.7-5.2 2.7m.7-6.9H83c-1.2 1.6-2.8 2.4-5.1 2.4h-9.1c.8-.7 1.5-1.5 2-2.4m-49.6.4c.3-.4.8-.8 1.3-1.2.4-.3 1-.6 1.6-.7.9-.2 1.9-.2 2.9 0l-3.3 2c-.4 0-.8-.1-1.2-.1-.6 0-1.1 0-1.5.1.1 0 .1 0 .2-.1m-3.8 14.4c0-.1.1-.2.2-.2l1.6.1c1.9-.1 3.9-.9 4.1-2.9 0-1.4-1-2.7-2.3-2.7-.7 0-1.6.5-2.5 1.1-.6.4-1.1.7-1.4.7-.2 0-.4-.2-.4-.3v-.1l1-1.4-.9-.6c-.2-.1-.5-.4-.5-.5 0-.1.1-.2.1-.3.4-.4.8-.9 1.2-1.6.3-.4.4-.6.8-.6s.8.3.8.8c0 .3.3.5.7.5.4 0 .6-.3.8-.5 0 0 .9-.8.4-1.2-.5-.4-2.7.5-2.1-1.5l.2-.3c.2-.3 1.3-1.1 3.4-1.1.4 0 .8 0 1.3.1h.3l4.6-2.8c0 .1.1.2.1.2.2 1.4-.6 3-2 3.8l-.6.3.4 2.1c-1.2.4-2 1.3-2 2.4 0 .4.1.9.2 1.4.1.7.3 1.4.3 2.1 0 2.2-3 3.6-5.5 3.5h-.1c-.1 0-1.7-.1-2.1-.4-.1.1-.1 0-.1-.1M6 25.5c.4-.6 1.2-1 2.2-.9l.8.1.3-.7c.1-.2.2-.4.3-.5.2-.2.6-.3 1-.3 1.1 0 2.5.8 3.6 2 .4.4.8 1 1.1 1.5.1.1.1.2.2.3.1.1.2.3.2.3 0 .1.6.9.6 1 .4-.5.8-1.1 1.1-1.6v-.1c-.1-.2-.3-.5-.4-.7l-.1-.1s-.1-.1-.1-.2c-.1-.2-.3-.5-.4-.6l2.4-3.8c.6.1 1.1.1 1.4.1h.1c3.4 0 6.9-2 6.9-5.2V16c0-.9-.2-1.7-.3-2.4-.1-.5-.2-.9-.2-1.1 0-.4.5-.8 1.2-.8H29l-.5-2.8c1.5-1.1 2.5-3 2.4-4.7 1.7 1.3 2.8 3.5 3 5.8.1.7-.1 1.6-.3 2.6l-.1.4c-.4 1.6-1 3.3-1.3 4.1l-.3.7.7.4c1.2.7 2 1.2 2 2.8 0 1.9-1.7 3.3-3.3 3.6L29 25l1.9 1.3c.6.4 1 1.1 1 1.8 0 1.2-1 2.1-2.2 2.1H29l-.2.6c-.7 2.2-1.4 3.3-3.8 3.6v-3.3l-.1-2.1-1.5 1.5c-.5.5-1.4.9-2.4 1.1v-1.8L10.5 27l-3.7 1c-.8-.8-1-2.2-.8-2.5M3 48.3l7.6-2 7.6 2H3zm16.2-1.6l-8.7-2.3-8.7 2.3V31.2l8.7-2.3 8.7 2.3v15.5zm4.1-3c-.8 1.1-.9 2.7-.3 4.6h-1.9V33.5c.7-.1 1.4-.3 2.1-.6 0 .6-.1 1.2-.2 1.8 0 .2-.1.3-.1.5l-.2 1.1h1.1c1.6 0 2.8-.3 3.8-.7v6.2c0 .2-.1.3-.3.3H27c-1.6-.1-3 .5-3.7 1.6m20 .4c-.7.8-1.3 2.1-.9 4.2H31.1c1.2-.1 2.1-.4 2.7-1 .7-.8.8-1.8.8-2.6 0-.1.1-.3.7-.6l1-.4-.6-.9c-1-1.5-.5-4.7-.2-6.5h.1c3.8 0 6.3-.8 8.9-1.6.7-.2 1.4-.4 2.1-.7 0 0 .8-.2 1.8-.5l3.7 6.1v.1c.4.5.4.9-.3 1.6l-1.8 2-3-.6c-1.3-.2-2.8.4-3.7 1.4m1 4.2c-.3-1.3-.2-2.3.4-3 .6-.7 1.4-.8 2.1-.8l3.5.6h.6l2.5-2.7c.4-.5 1.7-2 .4-3.9l-3.3-5.4c.5-.1 1.1-.1 1.6-.1 0 0 1.7 0 3.5 1 .2.5.6 1.2.9 2 .7 1.4 1.6 3.2 1.8 3.9.1.2.3.9-.5 1.8l-6.3 6.7h-7.2zm21.6 0h-12l5.1-5.4c1-1.1 1.4-2.4.9-3.6-.2-.7-.9-2.1-1.6-3.6 2 .9 5.1 1.8 11.4 2.3.8.1 1 .3 1.1 1l.3 2.7-3.3.7c-1.1.2-2 .9-2.4 2-.4 1.2-.2 2.6.5 3.9m1.3-3.2c.2-.5.5-.8 1-.9l4.9-1.1-.4-4.4v-.1c-.1-.6-.5-2.3-2.8-2.5-8.8-.7-10.8-2-13-3.4l-.1-.1c-2.3-1.5-4.6-1.5-4.8-1.5-2.5 0-5.6 1-5.9 1.1-.8.2-1.5.5-2.2.7-2.8.9-5.1 1.7-9.1 1.5h-.7l-.2.7c-.1.5-1.3 5-.2 7.8-1 .8-1 1.6-1 1.8 0 1-.2 1.2-.3 1.3-.5.5-2 .5-3.3.5h-.5l-.3.4c-.8 1.1-2.5 1.4-3.6 1.1-.5-1.5-.5-2.6 0-3.3.6-.8 1.7-.9 2.2-.9h.3c1.2 0 2.1-1 2.1-2.1v-7.9c.4-.5.6-1.2.9-1.9a3.98 3.98 0 002.8-6c1.8-.9 3.3-2.6 3.3-4.9 0-2.3-1.2-3.4-2.3-4 .3-.9.8-2.4 1.2-4l1.5-5.5c.7-2.2 2.5-3.6 4.6-3.6h27.2c-1.2 1.6-2.8 2.4-5.1 2.4H47.1l-.9 1.8H61c-1.2 1.8-2.9 2.7-5.3 2.7H45l-.9 1.8h9.5c-1.2 1.8-2.8 2.6-5.2 2.6h-5.8l-.9 1.8h6.1c.1.1.2.4.2 1.1 0 1.2-1 2.1-2.2 2.1-.4 0-.8-.1-1.4-.4-.3-.1-.5-.2-.8-.3l-1.4 1.3c.3.1.5.2.8.3 1.2.5 1.9.8 2.8.8 1.1 0 2.1-.5 2.9-1.2 1 .1 2.7.2 4.4.3 2 .2 3.8.3 4.8.4.5 0 .9 0 1.4.1.8 0 1.6.1 2.3.1 3.7 6 5.6 6.8 12.8 7.7.5.9 1 1.9 1.4 2.9v12.6a7 7 0 01-1.7.9L68 48.2c-.8-1.1-1.1-2.2-.8-3.1"/><path d="M17.3 33.6l-5.8-1.5V34l5.8 1.5z"/><path d="M3.8 35.5L9.6 34v-1.9l-5.8 1.5z"/><path d="M3.8 39.3l5.8-1.5v-1.9l-5.8 1.5z"/><path d="M17.3 37.4l-5.8-1.5v1.9l5.8 1.5z"/><path d="M17.3 41.2l-5.8-1.5v1.9l5.8 1.5z"/><path d="M3.8 43.1l5.8-1.5v-1.9l-5.8 1.5z"/></g></svg>