<svg width="157" height="35" viewBox="0 0 157 35" fill="none" xmlns="http://www.w3.org/2000/svg">
<path d="M40.6099 21.2585V12.7698H42.55V19.6618H48.8095V21.2585H40.6099Z" fill="#35182E"/>
<path d="M50.8965 21.2585V12.7698H58.549V14.2169H52.8366V16.1082H58.7973V17.5577H52.8366V19.6618H59.5168V21.2585H50.8965Z" fill="#35182E"/>
<path d="M87.4355 21.2585V12.7698H95.0881V14.2169H89.378V16.1082H95.3364V17.5577H89.378V19.6618H96.0559V21.2585H87.4355Z" fill="#35182E"/>
<path d="M74.4292 21.2585V12.7698H79.8014C81.3415 12.7698 82.5231 13.1368 83.3438 13.8709C84.1621 14.6073 84.5736 15.6383 84.5736 16.9639C84.5736 17.8078 84.3828 18.5747 84.0058 19.2643C83.5966 19.9891 83.0265 20.5104 82.2909 20.8284C81.6243 21.1112 80.6266 21.2562 79.3003 21.2562H74.4292V21.2585ZM76.3716 19.6618H78.8796C80.1646 19.6618 81.0864 19.4724 81.6473 19.0867C82.261 18.6705 82.5691 17.9505 82.5691 16.9312C82.5691 15.1661 81.6519 14.2824 79.8198 14.2824H76.3739V19.6618H76.3716Z" fill="#35182E"/>
<path d="M112.75 21.2585V12.7698H114.69V16.0568H120.756V12.7698H122.712V21.2585H120.756V17.6045H114.69V21.2585H112.75Z" fill="#35182E"/>
<path d="M138.054 21.2585V12.7698H139.994V19.6618H146.256V21.2585H138.054Z" fill="#35182E"/>
<path d="M148.569 21.2585V12.7698H150.511V19.6618H156.771V21.2585H148.569Z" fill="#35182E"/>
<path d="M107.318 12.7743C107.318 12.7743 107.318 13.5785 107.318 15.2735C107.318 16.9614 107.396 17.5622 107.396 17.5622L100.976 13.6276V12.7743H99.2285V21.2607H100.976C100.976 21.2607 100.976 17.7025 100.976 17.0759C100.976 16.4494 100.902 15.6452 100.902 15.6452L107.318 19.5891V21.2607H109.067V12.7743H107.318Z" fill="#35182E"/>
<path d="M68.1672 12.7554H65.3834L61.2065 21.2441H63.1467L64.1168 19.3855H69.4292L70.4015 21.2441H72.3417L68.1672 12.7554ZM64.6225 17.8542L66.2569 14.3989H67.2936L68.928 17.8542H64.6225Z" fill="#35182E"/>
<path d="M131.642 12.7554H128.858L124.682 21.2441H126.622L127.592 19.3855H132.904L133.877 21.2441H135.817L131.642 12.7554ZM128.098 17.8542L129.732 14.3989H130.769L132.403 17.8542H128.098Z" fill="#35182E"/>
<path d="M14.7051 8.63078L22.0576 4.31853L14.7051 -0.00012207V8.63078Z" fill="#561B4E"/>
<path d="M0 17.268L7.35249 12.9494L0 8.63074V17.268Z" fill="#6D0C2A"/>
<path d="M0 25.8987L7.35249 21.5801L0 17.2678V25.8987Z" fill="#6D0C2A"/>
<path d="M7.35254 21.5804L14.705 17.2681L7.35254 12.9495V21.5804Z" fill="#CA3327"/>
<path d="M7.35254 30.2171L14.705 25.8985L7.35254 21.5798V30.2171Z" fill="#6D0C2A"/>
<path d="M14.705 -0.00012207L7.35254 4.31853L14.705 8.63078V-0.00012207Z" fill="#CC9999"/>
<path d="M14.705 17.2678L7.35254 21.5801L14.705 25.8987V17.2678Z" fill="#F1563C"/>
<path d="M14.7051 17.268L22.0576 12.9494L14.7051 8.63074V17.268Z" fill="#561B4E"/>
<path d="M22.0576 21.5804L29.4101 17.2681L22.0576 12.9495V21.5804Z" fill="#B21F30"/>
<path d="M22.0576 30.2171L29.4101 25.8985L22.0576 21.5798V30.2171Z" fill="#B21F30"/>
<path d="M14.7051 25.8987L22.0576 21.5801L14.7051 17.2678V25.8987Z" fill="#CA3327"/>
<path d="M14.7051 34.53L22.0576 30.2177L14.7051 25.899V34.53Z" fill="#6D0C2A"/>
<path d="M14.705 8.63074L7.35254 12.9494L14.705 17.268V8.63074Z" fill="#F1563C"/>
<path d="M14.705 25.899L7.35254 30.2177L14.705 34.53V25.899Z" fill="#B21F30"/>
<path d="M7.35254 12.9495L14.705 8.63085L7.35254 4.3186V12.9495Z" fill="#CA3327"/>
<path d="M7.35249 4.3186L0 8.63085L7.35249 12.9495V4.3186Z" fill="#993366"/>
<path d="M7.35249 12.9495L0 17.2681L7.35249 21.5804V12.9495Z" fill="#993366"/>
<path d="M7.35249 21.5798L0 25.8985L7.35249 30.2171V21.5798Z" fill="#993366"/>
<path d="M22.0576 12.9495L29.4101 8.63085L22.0576 4.3186V12.9495Z" fill="#561B4E"/>
<path d="M22.0576 4.3186L14.7051 8.63085L22.0576 12.9495V4.3186Z" fill="#CC9999"/>
<path d="M29.4101 8.63074L22.0576 12.9494L29.4101 17.268V8.63074Z" fill="#CC9999"/>
<path d="M29.4101 17.2678L22.0576 21.5801L29.4101 25.8987V17.2678Z" fill="#F1563C"/>
<path d="M22.0576 21.5798L14.7051 25.8985L22.0576 30.2171V21.5798Z" fill="#CC9999"/>
<path d="M22.0576 12.9495L14.7051 17.2681L22.0576 21.5804V12.9495Z" fill="#F1563C"/>
</svg>
