<svg width="141" height="45" viewBox="0 0 141 45" fill="none" xmlns="http://www.w3.org/2000/svg">
<g clip-path="url(#clip0_16_441)">
<path d="M26.955 44.9213C29.61 44.9213 32.085 44.1226 34.1775 42.7388V44.9213H40.4325V31.0163C40.4325 23.3326 34.4025 17.1113 26.955 17.1113C19.5075 17.1113 13.4775 23.3213 13.4775 31.0163C13.4775 38.7113 19.5075 44.9213 26.955 44.9213ZM26.955 23.5801C30.9375 23.5801 34.1775 26.9213 34.1775 31.0388C34.1775 35.1563 30.9488 38.4863 26.955 38.4863C22.9613 38.4863 19.7325 35.1563 19.7325 31.0388C19.7325 26.9213 22.9613 23.5801 26.955 23.5801Z" fill="#000236"/>
<path d="M77.2313 17.1221C69.7838 17.1221 63.7538 23.3321 63.7538 31.0271C63.7538 38.7221 69.7838 44.9321 77.2313 44.9321C82.4175 44.9321 86.9063 41.9171 89.1563 37.4846H80.82C79.7625 38.1146 78.5363 38.4746 77.2425 38.4746C74.385 38.4746 71.91 36.7533 70.7513 34.2671H90.3488C90.585 33.2208 90.72 32.1521 90.72 31.0496C90.72 23.3546 84.69 17.1333 77.2425 17.1333M70.74 27.7871C70.74 27.7871 74.3738 23.5683 77.2313 23.5683C80.0888 23.5683 82.5638 25.2896 83.7225 27.7871H70.7288H70.74Z" fill="#000236"/>
<path d="M106.256 17.1221C98.8087 17.1221 92.7787 23.3321 92.7787 31.0271V45.0108H99.0337V31.0271C99.0337 30.0033 99.2362 29.0246 99.5962 28.1246C100.687 25.4471 103.264 23.5683 106.256 23.5683C110.239 23.5683 113.479 26.9096 113.479 31.0271V44.9658H119.734V31.0271C119.734 23.3433 113.704 17.1221 106.256 17.1221Z" fill="#000236"/>
<path d="M131.569 7.45875C132.896 5.31 133.673 2.75625 133.673 0H127.418C127.418 4.1175 124.189 7.45875 120.195 7.45875V13.9163H129.51C128.183 16.065 127.406 18.6187 127.406 21.375H133.661C133.661 17.2575 136.89 13.9163 140.884 13.9163V7.45875H131.569Z" fill="#000236"/>
<path d="M58.8825 17.1221L52.0988 36.1796L45.4388 17.1221H38.5988L48.4763 44.8758H51.9638L52.065 44.9208L52.1888 44.8758H55.665L65.5538 17.1221H58.8825Z" fill="#000236"/>
<path d="M6.255 44.9216H13.4888V38.4528H6.255V7.41406H0V9.46156V38.4528V44.9216H0.9675H6.255Z" fill="#000236"/>
</g>
<defs>
<clipPath id="clip0_16_441">
<rect width="140.884" height="45" fill="white"/>
</clipPath>
</defs>
</svg>
