<?xml version="1.0" encoding="utf-8"?>
<!-- Generator: Adobe Illustrator 25.3.1, SVG Export Plug-In . SVG Version: 6.00 Build 0)  -->
<svg version="1.1" id="Layer_1" xmlns="http://www.w3.org/2000/svg" xmlns:xlink="http://www.w3.org/1999/xlink" x="0px" y="0px"
	 viewBox="0 0 510.2 92" style="enable-background:new 0 0 510.2 92;" xml:space="preserve">
<style type="text/css">
	.st0{fill:#A60A3D;}
	.st1{fill:#003057;}
</style>
<g>
	<rect x="481.9" y="60.6" class="st0" width="28.3" height="28.3"/>
	<g>
		<g>
			<polygon class="st1" points="0,3.9 23,3.9 41.5,63.4 41.8,63.4 59,3.9 82,3.9 100.5,63.4 100.8,63.4 118.5,3.9 140,3.9 
				111.1,88.9 90,88.9 69.8,30.8 69.5,30.8 51.6,88.9 29.6,88.9 			"/>
		</g>
		<g>
			<path class="st1" d="M194.7,67c-3.5,4.6-8.8,7.6-15.6,7.6c-7.9,0-14-3.1-14-10.4c0-13.1,14.6-13.5,24.6-13.5h9.6
				C199.3,57.3,198.3,62.1,194.7,67z M184.6,1.7c-9.3,0-23.5,3-29.6,5.7v15c5.8-1.9,17.6-4.7,27.1-4.7c12.9,0,19,4.9,19,19.8H189
				c-9.3,0-20.2,0.8-28.7,4.9c-8.5,4.1-14.5,10.5-14.5,23.1c0,16.2,14.6,25.3,29.8,25.3c10.1,0,21.1-5.4,26.3-14.6h0.3l-0.2,12.8
				h19.2V37.6C221.3,12.4,210.6,1.7,184.6,1.7z"/>
		</g>
		<g>
			<path class="st1" d="M438.3,67c-3.5,4.6-8.8,7.6-15.6,7.6c-7.9,0-14-3.1-14-10.4c0-13.1,14.6-13.5,24.6-13.5h9.6
				C442.9,57.3,441.9,62.1,438.3,67z M426.4,1.7c-9.3,0-23.5,3-29.6,5.7v15c5.8-1.9,17.6-4.7,27.1-4.7c12.9,0,19.1,4.9,19.1,19.8
				h-12.1c-9.3,0-20.2,0.8-28.7,4.9c-8.5,4.1-14.5,10.5-14.5,23.1c0,16.2,14.6,25.3,29.8,25.3c10.1,0,21.1-5.4,26.3-14.6h0.3
				l-0.2,12.8H463V48.5V37.6C463,12.4,452.3,1.7,426.4,1.7z"/>
		</g>
		<g>
			<path class="st1" d="M369.4,21.2V3.9H307v17.3h16.5v42.2c0,17,8.6,26.7,26,26.7c6.7,0,14.9-1.3,22.2-3.8l-0.2-15.6
				c-3.2,1.1-9,2.5-15.9,2.5c-10.3,0-10.2-6.7-10.2-14.8V21.2H369.4z"/>
		</g>
		<g>
			<path class="st1" d="M295.6,2.3c-1.6-0.4-3.3-0.6-5-0.6c-11.2,0-20.6,5.8-25.2,15.6h-0.4V3.9h-21.3v85.1h21.3V43.4
				c0-4.6,2.8-21.4,22.9-21.4c2.5,0,5.1,0.4,7.7,1V2.3z"/>
		</g>
	</g>
</g>
</svg>
