<svg width="284" height="412" viewBox="0 0 284 412" fill="none" xmlns="http://www.w3.org/2000/svg">
<g clip-path="url(#clip0_1316_36)">
<path d="M0 0H283.46V283.46H0V0Z" fill="#FF7900"/>
<path d="M111.2 256C107.354 258.572 102.827 259.937 98.2 259.92C90.84 259.92 86.49 255.02 86.49 248.46C86.49 239.63 94.61 234.95 111.34 233.06V230.87C111.34 228 109.16 226.34 105.14 226.34C103.295 226.288 101.464 226.671 99.7943 227.458C98.1248 228.245 96.664 229.414 95.53 230.87L88.53 226.87C92.21 221.73 97.8167 219.163 105.35 219.17C115.63 219.17 121.35 223.62 121.35 230.87V259.47H112.15L111.2 256ZM96.65 247.7C96.65 250.35 98.32 252.83 101.33 252.83C104.6 252.83 107.77 251.47 110.95 248.67V239.33C101.25 240.56 96.65 243.05 96.65 247.72V247.7ZM129.54 221.07L138.13 219.88L139.07 224.56C143.92 221.01 147.77 219.12 152.62 219.12C160.74 219.12 164.92 223.43 164.92 231.96V259.43H154.55V233.77C154.55 228.94 153.29 226.77 149.55 226.77C146.45 226.77 143.36 228.2 139.84 231.15V259.45H129.54V221.07ZM233.69 260.18C222.06 260.18 215.12 252.71 215.12 239.73C215.12 226.75 222.12 219.12 233.52 219.12C244.92 219.12 251.67 226.37 251.67 239.2C251.67 239.88 251.59 240.56 251.59 241.2H225.32C225.4 248.67 228.5 252.44 234.61 252.44C238.54 252.44 241.13 250.86 243.56 247.44L251.17 251.66C247.82 257.24 241.8 260.18 233.69 260.18ZM241.47 234.52C241.47 229.24 238.47 226.14 233.52 226.14C228.84 226.14 225.91 229.14 225.52 234.52H241.47ZM34.89 260.61C24.62 260.61 15.37 254.07 15.37 239.79C15.37 225.51 24.62 219 34.89 219C45.16 219 54.41 225.55 54.41 239.82C54.41 254.09 45.15 260.61 34.89 260.61ZM34.89 227.75C27.14 227.75 25.7 234.75 25.7 239.75C25.7 244.75 27.14 251.8 34.89 251.8C42.64 251.8 44.08 244.8 44.08 239.75C44.08 234.7 42.64 227.75 34.89 227.75ZM61.53 220H71.4V224.64C72.7428 223.036 74.4002 221.725 76.2699 220.788C78.1396 219.851 80.1817 219.307 82.27 219.19C82.7178 219.178 83.1658 219.202 83.61 219.26V229H83.11C78.59 229 73.65 229.7 72.11 233.21V259.45H61.53V220ZM190.34 251C198.22 250.94 198.88 242.93 198.88 237.69C198.88 231.53 195.88 226.51 190.27 226.51C186.54 226.51 182.38 229.23 182.38 238.12C182.38 243 182.72 251.05 190.34 251ZM208.86 219.88V257.23C208.86 263.83 208.36 274.68 189.55 274.8C181.8 274.8 174.61 271.75 173.17 264.97L183.42 263.32C183.85 265.26 185.03 267.2 190.84 267.2C196.23 267.2 198.84 264.62 198.84 258.45V253.86L198.7 253.72C197.05 256.66 194.54 259.46 188.51 259.46C179.32 259.46 172.07 253.08 172.07 239.74C172.07 226.55 179.54 219.17 187.93 219.16C195.8 219.16 198.72 222.73 199.39 224.62H199.27L200.12 219.9L208.86 219.88ZM255.75 206.79H251.67V218.09H249.51V206.79H245.43V205.05H255.75V206.79ZM272.75 218.09H270.6V207.2H270.53L266.26 218.09H264.9L260.63 207.2H260.57V218.09H258.42V205.09H261.74L265.63 214.99L269.46 205.09H272.75V218.09Z" fill="white"/>
</g>
<path d="M34.5704 338.889V348.781H23.742V375.438C23.742 377.939 24.1577 379.602 24.9891 380.434C25.8205 381.265 27.49 381.682 29.9843 381.682C30.8157 381.682 31.6136 381.648 32.3779 381.581C33.1422 381.513 33.8664 381.406 34.5637 381.265V392.72C33.3166 392.927 31.922 393.068 30.4 393.135C28.8712 393.203 27.3828 393.236 25.9211 393.236C23.628 393.236 21.4624 393.082 19.4107 392.766C17.3656 392.451 15.5553 391.848 13.9998 390.943C12.4376 390.044 11.2039 388.756 10.3054 387.086C9.40026 385.423 8.95105 383.237 8.95105 380.528V348.767H0V338.876H8.95105V322.734H23.7353V338.876H34.5637L34.5704 338.889Z" fill="white"/>
<path d="M75.4163 392.733V385.235H75.1009C73.2236 388.36 70.7963 390.614 67.8124 392.002C64.8292 393.39 61.7716 394.081 58.6471 394.081C54.6912 394.081 51.446 393.557 48.9116 392.518C46.3771 391.479 44.3791 390.003 42.9241 388.092C41.4692 386.181 40.4433 383.86 39.8533 381.118C39.2632 378.375 38.9683 375.337 38.9683 372.004V338.889H53.7525V369.295C53.7525 373.741 54.4431 377.054 55.8378 379.24C57.2257 381.426 59.6933 382.519 63.2332 382.519C67.2565 382.519 70.1726 381.319 71.9767 378.924C73.7802 376.531 74.6852 372.594 74.6852 367.109V338.889H89.4696V392.726H75.4163V392.733Z" fill="white"/>
<path d="M112.789 399.392C114.318 399.392 115.652 399.097 116.799 398.507C117.945 397.917 118.515 396.616 118.515 394.604V338.889H133.3V395.328C133.3 398.104 133.004 400.499 132.415 402.51C131.825 404.522 130.819 406.206 129.397 407.56C127.976 408.915 126.045 409.921 123.618 410.578C121.184 411.235 118.1 411.57 114.352 411.57C112.615 411.57 111.053 411.429 109.665 411.155V398.97C110.429 399.245 111.469 399.385 112.789 399.385V399.392ZM118.515 330.56V318.375H133.3V330.56H118.515Z" fill="white"/>
<path d="M158.799 379.817C161.018 381.97 164.209 383.043 168.38 383.043C171.363 383.043 173.931 382.298 176.083 380.802C178.236 379.307 179.557 377.731 180.04 376.062H193.053C190.969 382.519 187.777 387.133 183.472 389.91C179.168 392.686 173.965 394.074 167.856 394.074C163.619 394.074 159.804 393.397 156.405 392.042C153.005 390.687 150.122 388.763 147.762 386.261C145.402 383.76 143.579 380.776 142.297 377.308C141.01 373.835 140.374 370.019 140.374 365.855C140.374 361.69 141.03 358.082 142.351 354.608C143.672 351.135 145.543 348.137 147.977 345.602C150.404 343.067 153.3 341.075 156.673 339.613C160.038 338.158 163.766 337.427 167.863 337.427C172.443 337.427 176.432 338.312 179.838 340.083C183.237 341.853 186.034 344.234 188.219 347.218C190.405 350.202 191.981 353.609 192.96 357.425C193.932 361.241 194.281 365.237 193.999 369.402H155.164C155.372 374.19 156.586 377.664 158.805 379.817H158.799ZM175.514 351.49C173.743 349.545 171.055 348.573 167.448 348.573C165.088 348.573 163.13 348.975 161.567 349.773C160.005 350.571 158.758 351.564 157.819 352.744C156.881 353.924 156.224 355.178 155.841 356.493C155.459 357.814 155.232 358.994 155.164 360.034H179.215C178.517 356.285 177.29 353.442 175.52 351.497L175.514 351.49Z" fill="white"/>
<path d="M212.324 379.347C212.981 380.494 213.832 381.433 214.871 382.157C215.911 382.888 217.111 383.425 218.465 383.773C219.82 384.122 221.228 384.296 222.683 384.296C223.722 384.296 224.815 384.176 225.961 383.934C227.108 383.693 228.147 383.31 229.086 382.787C230.024 382.265 230.802 381.574 231.426 380.702C232.049 379.837 232.364 378.743 232.364 377.423C232.364 375.203 230.889 373.533 227.939 372.427C224.989 371.32 220.872 370.207 215.602 369.094C213.45 368.611 211.352 368.034 209.306 367.377C207.262 366.72 205.437 365.848 203.842 364.775C202.246 363.702 200.959 362.347 199.987 360.711C199.014 359.081 198.532 357.083 198.532 354.722C198.532 351.248 199.209 348.405 200.563 346.186C201.918 343.966 203.701 342.209 205.927 340.928C208.147 339.647 210.648 338.741 213.423 338.218C216.199 337.696 219.049 337.44 221.959 337.44C224.868 337.44 227.698 337.716 230.447 338.272C233.189 338.829 235.636 339.767 237.788 341.082C239.941 342.403 241.725 344.153 243.152 346.339C244.574 348.526 245.425 351.288 245.701 354.622H231.647C231.439 351.778 230.36 349.847 228.422 348.841C226.477 347.835 224.184 347.332 221.55 347.332C220.718 347.332 219.813 347.386 218.84 347.486C217.869 347.593 216.983 347.815 216.186 348.164C215.388 348.512 214.71 349.016 214.154 349.672C213.597 350.336 213.323 351.222 213.323 352.328C213.323 353.649 213.805 354.722 214.778 355.554C215.75 356.385 217.017 357.063 218.579 357.586C220.142 358.109 221.925 358.578 223.943 358.994C225.954 359.41 228.006 359.859 230.085 360.349C232.237 360.838 234.336 361.429 236.381 362.119C238.426 362.816 240.249 363.735 241.845 364.882C243.441 366.029 244.721 367.451 245.701 369.154C246.673 370.857 247.156 372.956 247.156 375.458C247.156 378.999 246.445 381.969 245.023 384.363C243.602 386.758 241.745 388.682 239.452 390.144C237.158 391.606 234.537 392.625 231.594 393.215C228.643 393.806 225.64 394.101 222.589 394.101C219.538 394.101 216.407 393.786 213.423 393.162C210.439 392.538 207.785 391.492 205.457 390.037C203.131 388.582 201.22 386.65 199.732 384.256C198.237 381.862 197.426 378.858 197.285 375.25H211.338C211.338 376.846 211.666 378.221 212.33 379.361L212.324 379.347Z" fill="white"/>
<path d="M283 338.889V348.781H272.171V375.438C272.171 377.939 272.587 379.602 273.418 380.434C274.25 381.265 275.919 381.682 278.413 381.682C279.245 381.682 280.043 381.648 280.807 381.581C281.572 381.513 282.296 381.406 282.993 381.265V392.72C281.746 392.927 280.351 393.068 278.83 393.135C277.301 393.203 275.812 393.236 274.35 393.236C272.058 393.236 269.891 393.082 267.84 392.766C265.795 392.451 263.984 391.848 262.429 390.943C260.867 390.044 259.633 388.756 258.735 387.086C257.83 385.423 257.38 383.237 257.38 380.528V348.767H248.429V338.876H257.38V322.734H272.165V338.876H282.993L283 338.889Z" fill="white"/>
<defs>
<clipPath id="clip0_1316_36">
<rect width="283.46" height="283.46" fill="white"/>
</clipPath>
</defs>
</svg>
