<?xml version="1.0" encoding="utf-8" ?><svg xmlns="http://www.w3.org/2000/svg" xmlns:xlink="http://www.w3.org/1999/xlink" width="8000" height="4500" viewBox="0 0 8000 4500"><path transform="scale(1.33333 1.33412)" d="M0 0L6000 0L6000 3373L0 3373L0 0Z"/><path fill="#FDFDFD" transform="scale(1.33333 1.33412)" d="M2999.81 511.477C3027.29 519.423 3089.49 558.97 3113.5 572.824C3136.96 586.198 3161.17 599.152 3186.08 611.668C3254.66 645.787 3326.91 677.497 3402.43 706.617C3504.69 746.001 3613.43 779.794 3727.15 807.532C3811.38 827.624 3886.35 837.138 3965.95 865.597C3968.43 1062.15 3968.76 1258.71 3966.94 1455.26C3966.06 1584.35 3967.15 1713.36 3958.95 1841.57C3938.19 2166.33 3699.14 2438.24 3307.89 2672.98C3206.94 2733.55 3119 2780.36 3010.09 2836.5C3009.16 2836.51 3008.23 2836.59 3007.3 2836.54C2972.98 2834.53 2789.11 2730.14 2751.08 2708.8C2352.73 2485.22 2106.29 2210.27 2053.56 1894.05C2031.37 1760.93 2039.11 1626.36 2039.17 1492.82L2039.14 863.92C2110.1 840.449 2242.2 817.901 2323.79 796.637C2594.34 726.135 2799.71 634.134 2999.81 511.477Z"/><path transform="scale(1.33333 1.33412)" d="M3001.51 580.724C3057.05 604.928 3136.36 654.011 3196.04 683.208C3404.04 784.64 3647.55 860.442 3910.86 905.728L3910.67 1422.99C3910.93 1546.48 3912.07 1661.95 3905.54 1784.66C3889.06 2094 3712.72 2355.19 3343.01 2586.18C3233.57 2654.56 3124.45 2710.08 3003.7 2772.31C2937.63 2744.87 2833.76 2687.59 2775.43 2654.76C2398.74 2442.72 2159.61 2190.59 2111.86 1889.67C2089.56 1749.13 2096.07 1628.22 2097.36 1488.46L2097.59 910.652C2181.33 892.294 2258.24 878.557 2341.92 857.528C2606.91 790.935 2801.89 696.064 3001.51 580.724Z"/><path fill="#FDFDFD" transform="scale(1.33333 1.33412)" d="M2999.62 615.541C3022.97 624.928 3055.79 643.146 3077.64 654.665C3116.92 675.727 3157.05 696.278 3198.01 716.302C3351.79 790.279 3550.35 857.308 3737.07 903.581C3780.59 914.367 3834.81 921.089 3881.69 926.682L3881.73 1423.21C3882.07 1548.65 3885.35 1667.02 3875.1 1792.22C3839.78 2223.42 3557.56 2458.77 3007.58 2739.3C2969.48 2734.6 2802.2 2637.85 2765.66 2617.24C2431.25 2428.59 2199.07 2183.1 2146.49 1916.71C2119.82 1781.58 2127.41 1646.2 2126.85 1510.33C2123.44 1317.11 2122.63 1123.88 2124.42 930.66C2486.34 866.307 2738.82 768.066 2999.62 615.541Z"/><path transform="scale(1.33333 1.33412)" d="M3002.74 709.537C3012.73 714.25 3023.07 719.432 3032.24 724.664C3249.6 848.696 3513.6 934.495 3800.57 996.944L3800.33 1446.4C3800.82 1558.22 3801.86 1672.47 3797.95 1783.57C3789.16 2033.76 3629.07 2265.69 3344.04 2457.37C3236.9 2529.42 3128.08 2589.11 3006.43 2653.8C2966.7 2640.91 2881.02 2591.16 2846.44 2571.59C2527.45 2391.03 2287.21 2168.48 2230.78 1912.49C2200 1772.89 2206.77 1638.81 2208.69 1499L2208.81 996.7C2553.67 930.577 2732.17 843.614 3002.74 709.537Z"/><path fill="#FDFDFD" transform="scale(1.33333 1.33412)" d="M3003.06 849.134C3049.51 872.161 3068.23 955.129 3067.49 988.167C3067 1005.8 3062.89 1023.34 3055.25 1040.44C3045.44 1061.59 3016.45 1083.16 3015.36 1102.52C3012.27 1157.09 3016.6 1215.56 3021.72 1269.85C3048.55 1210.52 3088.15 1179.43 3080 1115.12C3076.28 1085.8 3101.06 1037.94 3142.9 1020.16C3153.59 1015.62 3236.35 985.098 3256.52 1003.12C3266.88 1038.72 3249 1094.83 3228.51 1128.66C3200.14 1175.51 3165.17 1179.1 3094.39 1197.2C3028.14 1264.51 3029.07 1393.93 3029.43 1470.81C3041.39 1457.07 3073.67 1421.65 3077.49 1409.15C3091.39 1363.7 3081.85 1313.99 3125.08 1271.97C3156.47 1241.47 3210.27 1234.07 3266.56 1225.87C3266.49 1262.13 3260.6 1310.17 3240.18 1344.01C3214.48 1386.58 3165.7 1401.74 3098.51 1420.01C3061.73 1472.93 3037.14 1525.19 3038.17 1582.69C3091.73 1515.25 3143.34 1468.24 3257.14 1427.79C3202.08 1480.6 3132.54 1529.44 3092.46 1586.87C3060.35 1632.86 3051.55 1680.79 3043.59 1729.47C3183.94 1635.34 3294.76 1425.29 3334.98 1306.06C3318.67 1288.23 3306.38 1269.33 3298.41 1249.78C3268.59 1176.12 3298.17 1107.75 3369.2 1044.99C3435.51 1140.57 3445.04 1218.54 3358.01 1305.42C3347.56 1315.85 3345.18 1345.05 3343.4 1358.48C3357.1 1349.59 3395.43 1325.66 3402.67 1316.13C3432.48 1276.94 3426.12 1216.86 3493.94 1188.88C3528.77 1174.52 3577.29 1179.56 3617.05 1183.95C3606.48 1222.11 3587.11 1277.02 3534.61 1304.87C3498.95 1323.78 3467.5 1323.16 3423.19 1322.55C3334.14 1391.09 3276.06 1512.95 3227.32 1595.01C3238.63 1590.77 3249.81 1586.43 3260.86 1581.99C3322.42 1556.74 3384.54 1513.47 3410.53 1472.33C3415.71 1457.5 3415.07 1440.84 3419.23 1425.94C3440.33 1350.44 3505.88 1325.35 3638.9 1339.59C3614.75 1396.46 3597.49 1469.37 3481.3 1486.57C3465.74 1488.88 3447.96 1490.04 3431.97 1491.25C3409.85 1503.6 3372.62 1544.63 3354.22 1562.44C3416.25 1549.19 3434.25 1548.84 3498.75 1541.46C3517.46 1526.56 3533.72 1510.4 3557.89 1497.97C3628.94 1461.45 3699.01 1511.45 3742.09 1540.74C3723.87 1559.64 3683.95 1595.95 3645.54 1602.35C3594.14 1610.92 3545.57 1573.51 3502.53 1560.76C3381.72 1567.41 3261.72 1620.94 3180.21 1668.23C3314.44 1667.84 3324.58 1686.12 3384.36 1747.85C3491.67 1765.5 3510.89 1801.67 3529.68 1859.1C3534.33 1873.31 3547.65 1903.13 3535.39 1915.49C3508.34 1922.84 3445.56 1904.35 3426.85 1892.85C3364.35 1854.45 3367.66 1797.56 3369.95 1749.14C3330.39 1725.15 3319.81 1719.73 3262.22 1710.91C3277.89 1741.34 3295.56 1744.46 3316.9 1768.9C3371.26 1831.11 3332.93 1907.03 3296.55 1968.62C3205.73 1878.22 3194.7 1826.68 3261.58 1730.24C3255.9 1724.97 3246.27 1715.67 3239.44 1711.6C3213.07 1695.86 3148.06 1723.38 3133.33 1734.93C3051.81 1798.8 3052.89 1893.72 3061.39 1969.33C3070.26 2044.47 3111.27 2134.98 3214.66 2186.86C3301.82 2230.59 3486.41 2226.33 3597.12 2221.41C3583.2 2239.65 3573.74 2248.38 3553.12 2264.44C3478.73 2260.8 3412.19 2268.71 3329.32 2259.38C3200.66 2244.89 3159.84 2198.94 3091.72 2142.9C3145.11 2239.37 3228.16 2303.48 3423.24 2297.35C3455.63 2296.33 3488.49 2293.34 3520.85 2293.55L3525.6 2293.59C3514.11 2308.08 3495.51 2322.05 3478.33 2334.53C3409.57 2341.6 3327.59 2341.61 3261.95 2326.64C3135.84 2297.9 3086.96 2221.89 3037.78 2156.87C3055.28 2232.21 3082.07 2323.04 3225.48 2353.32C3299.97 2369.05 3365.01 2362.58 3441.64 2361.85C3426.04 2377.24 3406.22 2392.11 3386.97 2406.11C3256.19 2406.72 3125.65 2400.36 2992.68 2402.48C2869.26 2403.19 2745.03 2406.22 2623.22 2406.45C2603.42 2392.66 2585.43 2377.95 2567.21 2363.47C2597.02 2363.94 2626.85 2364.07 2656.67 2363.86C2737.2 2362.88 2814.04 2356.55 2873.27 2322.68C2936.82 2286.33 2955.22 2197.29 2952.55 2149.18L2948.52 2157.24C2885.72 2280.84 2802.42 2351.38 2548.42 2336.34C2523.7 2334.87 2502.25 2307.09 2492.12 2295.87C2574.33 2295.84 2676.18 2301.56 2749.5 2280.8C2842.44 2254.49 2879.31 2197.77 2910.52 2146.13C2752.09 2269.32 2713.62 2268.61 2452.1 2265.96L2413.97 2225.15C2493.56 2226.28 2601.15 2227.37 2677.78 2217.16C2752.78 2207.27 2817.69 2181.01 2858.18 2144.18C2955.99 2054.3 2971.06 1897.23 2928.5 1794.54C2913.28 1757.79 2862.32 1697.51 2776.85 1708.82C2759.39 1711.13 2751.04 1723.81 2743.72 1732.23C2827.89 1824.87 2788.15 1881.63 2713.15 1969.36C2695.93 1945.6 2682.79 1920.96 2673.9 1895.79C2643.93 1808.98 2674.52 1774.92 2755.82 1707.07C2694.31 1716.89 2677.06 1724.82 2636.36 1751.89C2646.93 1833.45 2632.05 1901.76 2466.05 1918.53C2479.11 1840.58 2477.37 1779.25 2621.81 1746.71C2677.56 1690.14 2704.51 1663.51 2830.47 1668.4C2749.68 1609.65 2621.26 1579.42 2499.27 1558.89C2461.66 1580.68 2435.93 1597.61 2382.42 1604.73C2324.94 1597.66 2297.16 1567.68 2266.05 1541.48C2360.02 1466.78 2418.97 1466.04 2507.36 1543.18C2569.04 1544.63 2589.2 1548.91 2646.17 1561.04C2629.79 1541.02 2600.18 1512.66 2580.7 1492.68C2422.72 1480.07 2408.63 1433.95 2373.14 1355.73C2366.08 1340.19 2380.42 1335.06 2405.18 1333.48C2530.95 1325.5 2569.01 1371.77 2587.64 1431.89C2594.37 1453.14 2598.57 1479.55 2615.94 1499.19C2652.91 1539.51 2719.65 1569.77 2782.18 1596.7C2717.25 1503.98 2691.48 1404.98 2583.93 1320C2446.27 1333.58 2424.65 1261.01 2398.08 1203.68C2395.27 1197.61 2394.52 1189.41 2401.11 1184.1C2417.09 1179.59 2461.63 1179.79 2477.42 1181.52C2577.94 1192.5 2577.06 1264.15 2601.99 1306.73C2608.97 1318.66 2649.43 1347.42 2664.1 1358.5L2656.56 1305.66C2643.39 1295.57 2631.9 1284.82 2622.23 1273.55C2557.59 1197.54 2593.32 1120.29 2640.49 1045.47C2719.31 1103.61 2735.14 1179.26 2706.09 1248.95C2699.91 1263.77 2682.24 1287.15 2679.37 1300.43C2671.81 1335.4 2702.63 1380.06 2718.22 1414.24C2777.65 1529.78 2840.81 1631.45 2965.26 1730.82C2958.38 1701.59 2955.29 1677.98 2945.7 1648.23C2916.04 1556.27 2839.45 1499.63 2746.62 1426.64C2829.24 1455.37 2881.11 1485.92 2927.36 1534.37C2941.83 1549.53 2960.85 1571.21 2977.64 1584.8C2973.18 1523.57 2949.15 1476.45 2912.45 1420.31C2858.84 1407.4 2813.9 1391.87 2783.56 1362.83C2751.99 1332.6 2747.7 1299.29 2744.76 1265.08C2743.1 1245.66 2735.4 1216.67 2790.51 1228.8C2853.17 1240.63 2915.36 1286.08 2918.35 1324.04C2923.19 1385.6 2934.87 1415.09 2979.13 1472.75C2980.61 1382.54 2985.02 1276.49 2916.08 1193.79C2880.55 1189.99 2843.5 1185.06 2820.38 1168.53C2771.99 1134.19 2758.87 1089.35 2752.28 1046.88C2750.36 1034.47 2741.09 1006.49 2760.35 998.461C2784.63 996.419 2827.22 1004.88 2846.02 1011.74C2953.36 1050.92 2927.66 1127.04 2943.1 1186.77C2949.32 1210.84 2978.41 1246.13 2989.81 1274.18C2999.03 1216.52 2989.78 1153.02 2997.38 1093.99C2981.42 1079.62 2968.29 1064.31 2958.2 1048.35C2914.56 977.528 2947.36 913.869 3003.06 849.134Z"/><path transform="scale(1.33333 1.33412)" d="M3000.06 2245.74C3014.94 2253.98 3035.31 2294.32 3046.93 2306.58C3063.85 2324.44 3090.14 2342.73 3111.77 2359.24C3076.63 2362.73 3058.75 2362.14 3022.97 2360.2C2982.69 2360.33 2942.41 2360.27 2902.12 2360.05C2959.92 2318.95 2973.87 2294.48 3000.06 2245.74Z"/><path transform="scale(1.33333 1.33412)" d="M2466.75 1389.12C2516.87 1395.25 2564.63 1453.81 2580.52 1478.18C2560 1471.09 2484.56 1404.18 2466.75 1389.12Z"/><path transform="scale(1.33333 1.33412)" d="M3536.86 1388.26C3540.14 1397.37 3445.61 1468.03 3428.77 1481.12C3416.83 1457.34 3507.91 1405.23 3536.86 1388.26Z"/><path transform="scale(1.33333 1.33412)" d="M3175.08 1309.29L3176.91 1310.76C3175.71 1331.07 3119.8 1386.19 3099.98 1405.91C3097 1404.93 3098.85 1405.74 3096.33 1402.55C3100 1376.92 3150.59 1332.03 3175.08 1309.29Z"/><path transform="scale(1.33333 1.33412)" d="M2836.84 1076.44C2871.68 1090.19 2908.93 1153.67 2920.79 1178.01C2892.72 1166.18 2849.43 1098.06 2836.84 1076.44Z"/><path transform="scale(1.33333 1.33412)" d="M3584.72 1533.84C3607.39 1532.8 3632.55 1534.71 3655.42 1535.99L3570.56 1548.94C3553.46 1551.44 3528.99 1556.32 3512.98 1552.45L3512.08 1549.96C3528.2 1538.65 3560.63 1535.87 3584.72 1533.84Z"/><path transform="scale(1.33333 1.33412)" d="M2828.62 1305.58C2862.35 1319.09 2899.06 1378.79 2909.78 1401.92C2884.76 1392.62 2839.25 1324.62 2828.62 1305.58Z"/><path transform="scale(1.33333 1.33412)" d="M3001.36 959.775C3015.57 972.94 3008.61 1062.65 3004.19 1081.88C2987.3 1059.12 2995.54 986.642 3001.36 959.775Z"/><path transform="scale(1.33333 1.33412)" d="M3352.87 1165.58C3368.49 1184.38 3354.06 1268.69 3347.95 1292.08L3344.97 1292.37C3336.72 1282.17 3349.55 1181.62 3352.87 1165.58Z"/><path transform="scale(1.33333 1.33412)" d="M2371.99 1532.15C2424.46 1530.88 2458.77 1530.62 2494.93 1555.25C2456.07 1552.13 2401.82 1547.22 2371.99 1532.15Z"/><path transform="scale(1.33333 1.33412)" d="M2652.3 1170.62C2665.18 1178.5 2669.19 1272.69 2667.7 1289.07C2647 1263.62 2649.4 1199.35 2652.3 1170.62Z"/><path transform="scale(1.33333 1.33412)" d="M3169.17 1078.48C3170.85 1093.11 3110.91 1161.66 3095.11 1176.36C3092.83 1148.82 3143.39 1101.95 3169.17 1078.48Z"/><path transform="scale(1.33333 1.33412)" d="M2482.13 1234.65C2524.91 1243.41 2560.94 1277.64 2581.31 1298.86C2550.11 1293.27 2497.49 1250.24 2482.13 1234.65Z"/><path transform="scale(1.33333 1.33412)" d="M2731.62 1747C2738.74 1768.72 2727.49 1837.92 2720.05 1860.98C2708.12 1839.16 2719.23 1770.8 2731.62 1747Z"/><path transform="scale(1.33333 1.33412)" d="M3515.05 1238.3C3516.8 1251.73 3453.94 1290.63 3436.13 1302.35C3431.03 1286.85 3496.16 1248.77 3515.05 1238.3Z"/><path transform="scale(1.33333 1.33412)" d="M3273.53 1756.96C3293.32 1767.85 3287.71 1834.22 3285.91 1851.48C3275.88 1843.55 3273.92 1771.08 3273.53 1756.96Z"/><path transform="scale(1.33333 1.33412)" d="M2609.97 1768.43C2616.07 1784.25 2567.58 1822.38 2551.14 1835.04C2547 1822.9 2597.31 1779.98 2609.97 1768.43Z"/><path transform="scale(1.33333 1.33412)" d="M3400.79 1776.42C3423.99 1782.87 3451.71 1823.61 3460.97 1837.14C3435.24 1828.2 3412.46 1792.7 3400.79 1776.42Z"/><path fill="#FDFDFD" transform="scale(1.33333 1.33412)" d="M2901.72 2436.52C2935.95 2434.79 3003.69 2436.1 3041.08 2436.15C3142.62 2435.92 3244.16 2437 3345.62 2439.4C3327.47 2452.88 3305.49 2467.11 3286.1 2480.21L3115.72 2479.12L2720.33 2479.12C2701.23 2467.06 2682.88 2454.16 2664.64 2441.65C2744.95 2438.94 2821.91 2438.58 2901.72 2436.52Z"/><path fill="#FDFDFD" transform="scale(1.33333 1.33412)" d="M3455.89 1609.18C3588.96 1605.96 3607.95 1693.53 3631.86 1749.37C3603.65 1752.79 3585 1754.66 3556.5 1756.16C3427.65 1733.8 3422.9 1690.66 3378.94 1626.33C3414.24 1622.16 3424.14 1618.88 3455.89 1609.18Z"/><path transform="scale(1.33333 1.33412)" d="M3408.81 1641.48C3455.9 1645.49 3511.36 1668.25 3541.84 1688.22C3495.24 1681.74 3444.07 1658.96 3408.81 1641.48Z"/><path fill="#FDFDFD" transform="scale(1.33333 1.33412)" d="M2508.3 1610.6C2552.68 1610.28 2581.61 1617.44 2622.57 1625.66C2580.58 1680.55 2583.93 1720.47 2487.65 1750.68C2442.7 1759.24 2420.73 1756.01 2377.77 1748.96C2399.19 1689.38 2405.67 1642.07 2508.3 1610.6Z"/><path transform="scale(1.33333 1.33412)" d="M2589.88 1635.13C2593.53 1635.52 2591.67 1635.03 2594.68 1637.3C2585.68 1651.36 2497.23 1683.09 2470.89 1692.75L2466.85 1692.62L2466.48 1689.85C2489.96 1667.21 2550.11 1648.44 2589.88 1635.13Z"/><path fill="#FDFDFD" transform="scale(1.33333 1.33412)" d="M2950.68 2507.67C3015.71 2504.57 3164.59 2505.98 3228.63 2509.41C3177.14 2552.9 3142.36 2552.71 3056.39 2550.77C2985.57 2551.84 2910.25 2551.15 2839.02 2551.07C2815.83 2537.1 2796.46 2523.18 2775.29 2508.27C2833.18 2508.44 2893.01 2509.08 2950.68 2507.67Z"/><path fill="#FDFDFD" transform="scale(1.33333 1.33412)" d="M3111.4 2575.07L3112.78 2577.08C3074.04 2600.9 3046.24 2613.42 3002.11 2633.88L2952.23 2608.29C2932.68 2598.03 2920.08 2591.08 2902.56 2579.82C2944.78 2577.02 2978.13 2578.24 3020.3 2578.23C3049.19 2578.22 3082.34 2576.41 3111.4 2575.07Z"/></svg>