<?xml version="1.0" encoding="utf-8" ?><svg xmlns="http://www.w3.org/2000/svg" xmlns:xlink="http://www.w3.org/1999/xlink" width="6000" height="3373" viewBox="0 0 6000 3373"><path fill="#001D3E" transform="scale(3.125 3.12315)" d="M959.946 163.803C964.843 164.466 976.139 171.651 980.751 174.446C1018.52 197.337 1058.92 215.181 1100.27 230.661C1128.87 241.088 1158.01 249.966 1187.56 257.257C1199.05 260.147 1210.59 262.82 1222.18 265.274C1235.09 267.944 1258.04 271.395 1268.79 277.234C1269.89 289.29 1269.43 307.44 1269.44 319.94L1269.46 390.78L1269.44 492.116C1269.42 541.836 1271.39 595.54 1256.09 643.501C1220.28 755.768 1113.92 827.001 1015.96 881.419C999.251 890.704 979.508 899.728 962.318 908.595C958.649 908.347 952.324 904.966 948.879 903.278C863.864 861.614 778.454 810.89 717.351 737.085C678.61 690.29 656.49 629.934 653.042 569.61C651.993 551.249 652.713 533.019 652.677 514.671L652.58 437.789C652.313 383.986 652.354 330.183 652.701 276.381C675.114 269.74 707.564 263.974 731.552 258.148C811.681 238.685 889.973 207.982 959.946 163.803ZM671.24 291.362L671.169 450.597C671.096 507.626 666.364 582.023 682.886 635.471C717.899 748.737 830.475 821.278 930.226 872.576C935.494 875.28 956.82 886.708 961.508 887.495C1069.19 834.011 1194.38 764.054 1236.45 642.652C1255.73 587.037 1251.39 513.222 1251.47 453.999L1251.36 290.109C1137.58 268.525 1062.14 243.973 961.09 185.623C862.487 243.536 784.385 270.878 671.24 291.362Z"/><path fill="#001D3E" transform="scale(3.125 3.12315)" d="M960.059 197.079C968.061 200.603 977.505 205.88 985.329 210.009C1023.31 230.049 1059.7 247.128 1100.6 260.752C1146.48 276.033 1193.45 292.694 1242.11 296.612L1242.08 445.299C1242.24 505.28 1246.37 585.621 1227.16 641.671C1187.6 757.037 1064.31 826.575 961.338 877.671C951.133 874.454 932.766 863.845 922.919 858.65C828.479 808.826 724.297 739.405 691.626 631.842C677.041 583.823 680.912 524.019 680.401 473.874C679.662 415.278 679.446 356.676 679.754 298.076C780.634 280.294 871.778 250.092 960.059 197.079ZM706.75 318.998C706.434 367.285 706.44 415.573 706.769 463.859C706.956 516.786 701.99 582.535 719.591 632.01C753.404 727.05 846.904 788.009 931.359 834.413C937.86 837.985 956.526 849.471 962.46 849.53C1055.7 800.91 1169.65 735.057 1204.71 628.654C1218 588.333 1216.14 550.91 1216.06 509.265L1216 432.732C1216.01 396.074 1217.24 355.273 1216.57 319.216C1128.73 300.598 1039.11 272.208 961.131 226.9C894.449 261.396 829.423 291.062 756.073 308.179C739.269 312.1 724.073 316.469 706.75 318.998Z"/><path fill="#001D3E" transform="scale(3.125 3.12315)" d="M961.104 271.516C975.905 280.643 984.531 307.85 980.679 324.37C978.021 335.765 972.555 342.336 964.643 350.148C964.606 368.366 966.249 388.913 966.564 407.614C972.583 395.077 976.197 389.565 984.521 378.342C983.288 333.027 998.444 321.202 1042.62 319.489C1043.78 357.547 1029.08 379.763 989.55 382.664C969.993 409.896 968.727 438.18 969.762 471.104C974.566 464.306 980.944 457.225 986.183 450.039C988.599 405.096 1004.17 397.23 1045.49 392.598C1042.99 435.745 1031.61 444.74 991.546 454.496C979.041 472.925 972.995 485.423 971.799 507.703C989.624 483.141 1013.82 466.27 1042.73 457.1C1035.88 462.835 1029.06 468.616 1022.29 474.442C995.33 497.804 977.008 517.168 974.394 553.8C987.072 544.547 998.604 533.82 1008.75 521.843C1027.18 500.104 1062.02 445.157 1066.92 417.958C1041.2 385.931 1050.54 360.695 1077.92 334.549C1091.23 351.796 1100.19 375.332 1090.68 396.445C1086.05 406.735 1079.76 412.441 1071.76 419.901C1071.74 425.123 1071.06 428.703 1070.22 433.797L1071.71 434.057C1078.38 429.211 1084.79 425.436 1091.26 420.118C1103.17 378.86 1117.17 374.826 1157.69 379.017C1147.65 411.375 1131.08 427.444 1095.49 422.944C1088.42 429.521 1075.75 441.037 1070.44 448.524C1056.3 468.428 1046.19 490.261 1032.45 511.033C1061.47 499.854 1070.48 494.323 1091.93 472.21C1091.95 471.644 1091.98 471.078 1092.02 470.513C1095.26 425.567 1129.98 425.702 1164.3 428.809C1152.1 467.542 1133.86 475.718 1095.96 477.484C1088.41 486.421 1081.3 492.959 1072.61 500.743C1089.15 496.286 1102.69 494.822 1119.72 494.055C1146.34 466.276 1169.4 472.887 1197.41 493.454C1171.42 519.619 1153.64 517.804 1123.61 499.5C1091.83 499.939 1044.03 517.327 1017.46 534.329C1023.29 534.187 1029.12 534.153 1034.94 534.227C1058.73 534.653 1067.77 543.795 1083.09 559.701C1120.32 565.041 1127.85 579.293 1133.46 614.117C1130.69 614.062 1127.93 613.903 1125.18 613.639C1090.58 610.604 1075.25 595.379 1078.46 560.157C1064.47 551.43 1060.25 549.715 1043.99 547.935L1047.93 555.367C1049.23 556.15 1050.52 556.969 1051.78 557.824C1080.06 576.694 1070.86 606.344 1055.03 629.997C1028.87 605.964 1020.38 584.105 1043.71 554.064C1041.05 551.583 1037.71 548.86 1034.91 546.457C993.134 546.679 979.395 576.282 978.455 613.941C977.823 639.281 987.455 665.624 1005.4 683.866C1031.99 710.904 1069 711.62 1104.77 711.576L1150.87 711.432C1146.79 716.732 1142.92 721.067 1137.22 724.613C1122.2 724.805 1107.18 724.907 1092.17 724.919C1045.27 724.513 1020.71 717.088 988.203 684.029C1016.97 741.522 1073.56 736.951 1128.92 734.079C1123.62 739.187 1119.35 742.778 1113.62 747.418C1095.5 749.538 1061.15 749.331 1043.38 744.819C1007.78 735.775 990.711 719.121 972.126 689.363C982.416 760.1 1045.4 758.278 1101.79 756.116C1096.13 761.205 1090.59 765.423 1084.57 770.065C1044.11 770.614 1000.29 769.278 959.531 769.019L839.646 770.56C834.371 767.158 826.701 760.867 821.536 756.866C880.607 755.274 942.471 765.642 945.4 686.431C938.933 699.798 934.997 710.238 924.036 720.792C892.819 750.849 850.684 748.711 810.684 748.214C806.448 744.44 801.387 739.009 797.319 734.859C852.987 735.527 902.628 742.416 932.119 685.806C884.18 731.042 847.298 725.804 784.875 725.527C780.47 721.51 776.682 717.035 772.734 712.571C819.637 711.712 881.26 718.864 918.119 683.415C950.214 652.549 960.472 563.255 906.584 548.2C900.37 546.464 893.501 546.445 887.057 546.532C882.529 549.757 881.496 550.547 877.955 554.768C904.798 582.455 891.778 606.616 868.262 630.259C858.347 617.837 852.909 604.326 852.801 588.185C852.658 566.691 867.448 560.709 881.277 547.05C864.726 548.362 857.048 552.106 843.558 560.922C843.91 562.852 844.192 564.794 844.403 566.745C847.895 602.004 818.69 612.237 789.528 614.34C793.465 579.433 803.98 565.779 839.119 559.306C862.971 535.272 873.214 532.342 906.963 534.453C870.41 512.705 841.345 505.585 799.814 499.073C767.754 518.528 753.777 520.138 725.348 493.593C752.793 469.749 775.514 469.058 802.398 494.114C817.534 493.798 832.765 496.683 847.471 499.949C839.87 492.773 833.201 485.574 826.086 477.953C787.11 474.589 770.845 468.984 758.459 428.727C800.613 422.698 823.022 429.56 831.821 471.181C835.193 487.129 875.838 505.646 890.601 511.29C875.301 490.407 869.695 474.824 856.655 453.626C852.196 446.379 833.935 429.081 827.274 422.517C790.285 426.571 776.324 412.823 765.888 379.054C803.006 375.085 821.689 379.549 831.565 418.633C839.232 424.225 845.542 429.37 852.836 435.468C851.526 429.715 850.845 423.722 850.054 417.865C849.451 417.439 848.852 417.008 848.258 416.571C818.365 394.594 825.922 360.908 845.076 334.885C855.998 342.43 866.891 356.592 869.33 369.646C873.062 389.616 866.142 402.289 855.937 417.952C861.311 439.692 867.133 447.962 877.8 467.134C898.018 503.47 915.261 528.089 948.499 553.778C944.725 506.01 913.78 483.515 878.009 456.282C917.528 471.484 926.058 478.007 953.399 508.837C950.046 485.991 945.111 473.196 931.913 454.638C898.486 447.768 879.322 436.798 877.703 399.18C877.072 384.512 907.018 397.8 913.424 401.115C922.05 405.033 933.7 415.335 934.465 425.628C936.215 449.176 939.379 453.315 953.497 471.705C953.666 438.39 954.922 409.67 933.551 382.277C919.708 380.57 907.723 379.748 896.672 369.497C882.101 355.981 880.615 337.913 879.959 319.559C901.329 319.632 925.115 323.59 935.667 344.867C941.012 355.642 940.398 367.043 940.254 378.681C948.466 390.81 951.553 396.086 957.097 409.601C957.276 389.728 957.848 369.86 958.813 350.01C930.041 323.102 937.988 297.794 961.104 271.516ZM928.769 755.663C942.185 755.726 956.258 755.598 969.609 756.008C978.807 756.059 987.614 756.209 996.807 755.472C984.2 747.298 977.157 742.397 968.418 729.575C966.947 727.417 961.765 719.294 960.431 717.829C950.918 737.463 945.888 742.759 928.769 755.663ZM1097.06 474.537C1107.84 465.723 1124.21 453.292 1133.88 444.327L1133.31 443.509C1124.22 448.689 1100.61 462.794 1096.08 472.132C1096.3 474.19 1095.81 473.523 1097.06 474.537ZM990.209 451.995C996.205 446.703 1017.42 424.466 1018.06 417.185C1009.62 425.211 994.34 438.779 990.098 449.112L990.209 451.995ZM827.137 475.446C822.116 463.93 800.911 445.263 788.34 444.151C800.491 452.899 818.22 469.585 827.137 475.446ZM935.67 378.354C931.216 369.224 916.472 346.856 906.632 343.656C911.714 351.055 927.638 375.396 935.67 378.354ZM990.082 377.955C994.294 372.872 1015.55 348.448 1016 343.212C1010.4 348.496 987.69 369.665 990.082 377.955ZM870.508 599.383C871.854 590.552 876.027 566.562 874.977 558.651L874.205 557.652C869.769 570.496 866.852 586.054 870.508 599.383ZM1072.87 369.053C1071.72 378.936 1068.52 406.728 1070.23 415.086L1071.39 415.447C1074.31 401.057 1077.01 383.388 1072.87 369.053ZM1051.56 596.552C1052.22 585.796 1053.88 569.429 1047.23 560.354C1047.6 567.573 1048.97 590.533 1051.56 596.552ZM849.313 371.791C846.211 385.21 848.003 402.106 853.759 414.626C854.735 408.162 851.636 377.136 849.313 371.791ZM792.478 394.5C801.074 401.273 816.772 414.516 827.111 416.651C818.118 407.026 805.491 397.45 792.478 394.5ZM815.556 588.584C821.197 583.944 834.76 572.763 836.577 565.842L835.883 565.285C831.177 569.831 817.05 582.816 814.9 587.919L815.556 588.584ZM1098.76 417.792C1106.55 412.471 1120.64 403.161 1126.61 396.576L1125.98 395.698C1117.11 400.566 1104.64 408.27 1098.43 416.347C1098.49 416.689 1098.58 417.618 1098.76 417.792ZM1109.12 589.804C1103.31 582.037 1095.01 571.268 1086.39 566.758C1091.94 573.917 1100.91 586.764 1109.12 589.804ZM758.184 490.73C764.5 494.054 790.469 498.339 797.829 497.594C791.115 490.514 767.685 489.589 758.184 490.73ZM903.735 416.8C909.557 424.867 924.057 446.556 932.359 450.388C927.86 440.736 913.602 420.495 903.735 416.8ZM960.29 304.402C958.779 317.875 956.054 336.44 961.551 349.233C963.361 341.895 963.982 309.79 960.29 304.402ZM1141.18 491.588C1131.82 492.734 1127.05 493.832 1118.14 497.797C1128.43 497.836 1135.17 497.265 1145.4 495.382C1153.28 494.324 1161.14 493.184 1169 491.964C1161.18 491.343 1148.99 490.361 1141.18 491.588Z"/><path fill="#FDFDFE" fill-opacity="0.0078431377" transform="scale(3.125 3.12315)" d="M1133.31 443.509L1133.88 444.327C1124.21 453.292 1107.84 465.723 1097.06 474.537C1095.81 473.523 1096.3 474.19 1096.08 472.132C1100.61 462.794 1124.22 448.689 1133.31 443.509Z"/><path fill="#FDFDFE" fill-opacity="0.011764706" transform="scale(3.125 3.12315)" d="M1018.06 417.185C1017.42 424.466 996.205 446.703 990.209 451.995L990.098 449.112C994.34 438.779 1009.62 425.211 1018.06 417.185Z"/><path fill="#FDFDFE" fill-opacity="0.0078431377" transform="scale(3.125 3.12315)" d="M1016 343.212C1015.55 348.448 994.294 372.872 990.082 377.955C987.69 369.665 1010.4 348.496 1016 343.212Z"/><path fill="#FDFDFE" fill-opacity="0.015686275" transform="scale(3.125 3.12315)" d="M1125.98 395.698L1126.61 396.576C1120.64 403.161 1106.55 412.471 1098.76 417.792C1098.58 417.618 1098.49 416.689 1098.43 416.347C1104.64 408.27 1117.11 400.566 1125.98 395.698Z"/><path fill="#FDFDFE" fill-opacity="0.019607844" transform="scale(3.125 3.12315)" d="M835.883 565.285L836.577 565.842C834.76 572.763 821.197 583.944 815.556 588.584L814.9 587.919C817.05 582.816 831.177 569.831 835.883 565.285Z"/><path fill="#FDFDFE" fill-opacity="0.027450981" transform="scale(3.125 3.12315)" d="M1086.39 566.758C1095.01 571.268 1103.31 582.037 1109.12 589.804C1100.91 586.764 1091.94 573.917 1086.39 566.758Z"/><path fill="#001D3E" transform="scale(3.125 3.12315)" d="M905.361 780.448C960.461 779.759 1015.57 779.952 1070.66 781.027C1065.47 785.008 1057.58 790.004 1052 793.783L1021.17 793.971L871.054 794.029C865.728 791.021 857.918 785.425 852.635 781.858C869.775 780.926 888.119 780.824 905.361 780.448Z"/><path fill="#001D3E" transform="scale(3.125 3.12315)" d="M1108.84 514.964C1142.1 514.669 1150.75 532.421 1161.84 559.967C1153.14 561.49 1145.74 562.238 1136.95 562.023C1102.14 558.438 1099.64 546.095 1081.03 520.311C1093.56 520.668 1096.8 516.753 1108.84 514.964ZM1134.91 541.055C1120.99 532.56 1105.38 527.423 1089.3 524.82C1100.38 531.527 1122.05 538.834 1134.91 541.055Z"/><path fill="#001D3E" transform="scale(3.125 3.12315)" d="M802.808 515.806C813.782 514.514 828.096 518.588 839.413 520.772C837.444 523.494 834.451 526.329 832.89 528.901C820.214 549.793 821.022 551.609 798.052 560.054C782.235 563.357 776.719 562.783 761.176 559.96C769.525 535.547 775.686 521.892 802.808 515.806ZM788.957 542.713C795.36 540.216 828.887 528.318 831.266 523.694L829.998 523.126C817.004 527.265 800.008 532.726 788.906 540.901L788.196 542.477L788.957 542.713Z"/><path fill="#001D3E" transform="scale(3.125 3.12315)" d="M948.211 802.981C975.165 802.523 1006.72 802.172 1033.51 803.165C1012.28 820.606 1000.51 816.853 973.359 816.575C951.711 816.845 929.429 816.568 907.733 816.534C901.144 812.374 894.658 807.73 888.257 803.26L948.211 802.981Z"/><path fill="#001D3E" transform="scale(3.125 3.12315)" d="M974.968 825.529L997.074 824.438C987.088 831.456 971.783 838.416 960.659 843.174C957.903 841.972 954.762 840.337 952.031 838.987C943.723 834.612 935.657 830.47 927.694 825.452C943.445 826.085 959.215 826.11 974.968 825.529Z"/></svg>